# xmcd
#
# Track frame offsets:
#  150
#  19484
#  38283
#  61812
#  83391
#  97219
#  107505
#  123850
#  147070
#  167015
#  181386
#  196717
#  216928
#  242111
#  266430
#  282933
#  302566
#  319388
#
# Disc length: 4506 seconds
#
# Revision: 0
# Processed by: cddbd v1.5.1PL2 Copyright (c) Steve Scherf et al.
# Submitted via: Collectorz.com_Music_Collector 6.11
#
DISCID=ef119812
DTITLE=Bob Schulz And His Frisco Jazz Band - Remembering Clancy
DYEAR=2000
DGENRE=Tradjazz
TTITLE0=Dancing Fool
TTITLE1=Auntie Skinner's Chiken Dinner
TTITLE2=Memphis Blues
TTITLE3=My Honey's Lovin' Arms
TTITLE4=Off All The Vwrongs You've Done To Me (They're Bound To Come Back To You)
TTITLE5=Don't Forget 127 Street
TTITLE6=At The Devil's Ball
TTITLE7=Fidgety Feet
TTITLE8=Ballin' The Jack
TTITLE9=In New Orleans
TTITLE10=Broken Promises
TTITLE11=I Ain't Gonna Give Nobody None O' This Jelly Roll
TTITLE12=Michigan Water Blues
TTITLE13=Willie The Weeper
TTITLE14=Floatin' Down To Cotton Town
TTITLE15=My Little Bimbo Down On The Bamboo Isle
TTITLE16=Oceana Roll
TTITLE17=Peoria
EXTD=
EXTT0=
EXTT1=
EXTT2=
EXTT3=
EXTT4=
EXTT5=
EXTT6=
EXTT7=
EXTT8=
EXTT9=
EXTT10=
EXTT11=
EXTT12=
EXTT13=
EXTT14=
EXTT15=
EXTT16=
EXTT17=
PLAYORDER=
